<svg xmlns="http://www.w3.org/2000/svg" width="287.3" height="35" viewBox="0 0 287.3 35"><rect class="svg__rect" x="0" y="0" width="106.24" height="35" fill="#2ECC5A"/><rect class="svg__rect" x="104.24" y="0" width="183.06" height="35" fill="#056C00"/><path class="svg__text" d="M13.95 18.19L13.95 18.19L13.95 17.39Q13.95 16.19 14.38 15.27Q14.80 14.35 15.60 13.85Q16.40 13.35 17.45 13.35L17.45 13.35Q18.86 13.35 19.73 14.12Q20.59 14.89 20.73 16.29L20.73 16.29L19.25 16.29Q19.14 15.37 18.71 14.96Q18.28 14.55 17.45 14.55L17.45 14.55Q16.48 14.55 15.97 15.26Q15.45 15.96 15.44 17.33L15.44 17.33L15.44 18.09Q15.44 19.47 15.93 20.20Q16.43 20.92 17.38 20.92L17.38 20.92Q18.25 20.92 18.69 20.53Q19.13 20.14 19.25 19.22L19.25 19.22L20.73 19.22Q20.60 20.59 19.72 21.35Q18.84 22.12 17.38 22.12L17.38 22.12Q16.36 22.12 15.59 21.63Q14.81 21.15 14.39 20.26Q13.97 19.37 13.95 18.19ZM24.77 18.00L24.77 18.00L24.77 17.52Q24.77 16.28 25.21 15.32Q25.65 14.37 26.46 13.86Q27.27 13.35 28.31 13.35Q29.35 13.35 30.16 13.85Q30.96 14.35 31.40 15.29Q31.84 16.23 31.85 17.48L31.85 17.48L31.85 17.96Q31.85 19.21 31.41 20.16Q30.98 21.10 30.18 21.61Q29.37 22.12 28.32 22.12L28.32 22.12Q27.28 22.12 26.47 21.61Q25.66 21.10 25.22 20.17Q24.78 19.23 24.77 18.00ZM26.25 17.46L26.25 17.96Q26.25 19.36 26.80 20.13Q27.35 20.90 28.32 20.90L28.32 20.90Q29.31 20.90 29.84 20.15Q30.37 19.40 30.37 17.96L30.37 17.96L30.37 17.51Q30.37 16.09 29.83 15.34Q29.29 14.58 28.31 14.58L28.31 14.58Q27.35 14.58 26.81 15.33Q26.26 16.09 26.25 17.46L26.25 17.46ZM37.80 22L36.31 22L36.31 13.47L37.80 13.47L41.61 19.54L41.61 13.47L43.08 13.47L43.08 22L41.60 22L37.80 15.95L37.80 22ZM49.50 14.66L46.87 14.66L46.87 13.47L53.63 13.47L53.63 14.66L50.97 14.66L50.97 22L49.50 22L49.50 14.66ZM58.17 22L56.63 22L59.85 13.47L61.18 13.47L64.41 22L62.86 22L62.16 20.01L58.86 20.01L58.17 22ZM60.51 15.28L59.28 18.82L61.75 18.82L60.51 15.28ZM69.93 22L68.45 22L68.45 13.47L69.93 13.47L69.93 22ZM76.22 22L74.74 22L74.74 13.47L76.22 13.47L80.04 19.54L80.04 13.47L81.51 13.47L81.51 22L80.02 22L76.22 15.95L76.22 22ZM85.81 19.42L85.81 19.42L87.30 19.42Q87.30 20.15 87.78 20.55Q88.26 20.95 89.15 20.95L89.15 20.95Q89.93 20.95 90.32 20.63Q90.71 20.32 90.71 19.80L90.71 19.80Q90.71 19.24 90.31 18.94Q89.91 18.63 88.88 18.32Q87.85 18.01 87.24 17.63L87.24 17.63Q86.08 16.90 86.08 15.72L86.08 15.72Q86.08 14.69 86.92 14.02Q87.76 13.35 89.10 13.35L89.10 13.35Q89.99 13.35 90.69 13.68Q91.39 14.01 91.78 14.61Q92.18 15.22 92.18 15.96L92.18 15.96L90.71 15.96Q90.71 15.29 90.29 14.91Q89.87 14.54 89.09 14.54L89.09 14.54Q88.36 14.54 87.96 14.85Q87.56 15.16 87.56 15.71L87.56 15.71Q87.56 16.18 87.99 16.50Q88.43 16.81 89.42 17.10Q90.42 17.40 91.02 17.78Q91.63 18.16 91.91 18.65Q92.19 19.13 92.19 19.79L92.19 19.79Q92.19 20.86 91.37 21.49Q90.55 22.12 89.15 22.12L89.15 22.12Q88.23 22.12 87.45 21.77Q86.67 21.43 86.24 20.83Q85.81 20.22 85.81 19.42Z" fill="#FFFFFF"/><path class="svg__text" d="M120.22 15.48L117.64 15.48L117.64 13.60L125.16 13.60L125.16 15.48L122.59 15.48L122.59 22L120.22 22L120.22 15.48ZM136.28 22L129.53 22L129.53 13.60L136.12 13.60L136.12 15.44L131.89 15.44L131.89 16.85L135.62 16.85L135.62 18.63L131.89 18.63L131.89 20.17L136.28 20.17L136.28 22ZM140.65 17.80L140.65 17.80Q140.65 16.54 141.25 15.54Q141.85 14.55 142.90 13.99Q143.95 13.43 145.27 13.43L145.27 13.43Q146.42 13.43 147.35 13.84Q148.27 14.25 148.88 15.02L148.88 15.02L147.37 16.39Q146.56 15.40 145.39 15.40L145.39 15.40Q144.71 15.40 144.17 15.70Q143.64 16 143.34 16.54Q143.05 17.09 143.05 17.80L143.05 17.80Q143.05 18.51 143.34 19.05Q143.64 19.60 144.17 19.90Q144.71 20.20 145.39 20.20L145.39 20.20Q146.56 20.20 147.37 19.22L147.37 19.22L148.88 20.58Q148.28 21.35 147.35 21.76Q146.42 22.17 145.27 22.17L145.27 22.17Q143.95 22.17 142.90 21.61Q141.85 21.05 141.25 20.05Q140.65 19.06 140.65 17.80ZM155.80 22L153.42 22L153.42 13.60L155.80 13.60L155.80 16.76L159.04 16.76L159.04 13.60L161.41 13.60L161.41 22L159.04 22L159.04 18.72L155.80 18.72L155.80 22ZM168.91 22L166.57 22L166.57 13.60L168.53 13.60L172.24 18.07L172.24 13.60L174.57 13.60L174.57 22L172.62 22L168.91 17.52L168.91 22ZM182.11 22L179.73 22L179.73 13.60L182.11 13.60L182.11 22ZM186.85 17.80L186.85 17.80Q186.85 16.54 187.45 15.54Q188.05 14.55 189.10 13.99Q190.15 13.43 191.47 13.43L191.47 13.43Q192.63 13.43 193.55 13.84Q194.47 14.25 195.09 15.02L195.09 15.02L193.57 16.39Q192.76 15.40 191.59 15.40L191.59 15.40Q190.91 15.40 190.38 15.70Q189.84 16 189.55 16.54Q189.25 17.09 189.25 17.80L189.25 17.80Q189.25 18.51 189.55 19.05Q189.84 19.60 190.38 19.90Q190.91 20.20 191.59 20.20L191.59 20.20Q192.76 20.20 193.57 19.22L193.57 19.22L195.09 20.58Q194.48 21.35 193.55 21.76Q192.63 22.17 191.47 22.17L191.47 22.17Q190.15 22.17 189.10 21.61Q188.05 21.05 187.45 20.05Q186.85 19.06 186.85 17.80ZM201.04 22L198.61 22L202.32 13.60L204.67 13.60L208.38 22L205.91 22L205.25 20.37L201.70 20.37L201.04 22ZM203.48 15.93L202.39 18.61L204.55 18.61L203.48 15.93ZM218.92 22L212.54 22L212.54 13.60L214.91 13.60L214.91 20.11L218.92 20.11L218.92 22ZM234.29 22L230.31 22L230.31 13.60L234.29 13.60Q235.67 13.60 236.73 14.12Q237.80 14.63 238.39 15.58Q238.98 16.53 238.98 17.80L238.98 17.80Q238.98 19.07 238.39 20.02Q237.80 20.97 236.73 21.48Q235.67 22 234.29 22L234.29 22ZM232.69 15.50L232.69 20.10L234.19 20.10Q235.27 20.10 235.92 19.49Q236.58 18.88 236.58 17.80L236.58 17.80Q236.58 16.72 235.92 16.11Q235.27 15.50 234.19 15.50L234.19 15.50L232.69 15.50ZM250.45 22L243.71 22L243.71 13.60L250.30 13.60L250.30 15.44L246.06 15.44L246.06 16.85L249.80 16.85L249.80 18.63L246.06 18.63L246.06 20.17L250.45 20.17L250.45 22ZM259.80 22L255.26 22L255.26 13.60L259.56 13.60Q261.16 13.60 262.00 14.19Q262.84 14.79 262.84 15.79L262.84 15.79Q262.84 16.39 262.55 16.87Q262.25 17.34 261.71 17.62L261.71 17.62Q262.43 17.87 262.84 18.41Q263.25 18.94 263.25 19.70L263.25 19.70Q263.25 20.80 262.36 21.40Q261.47 22 259.80 22L259.80 22ZM257.61 18.58L257.61 20.28L259.60 20.28Q260.85 20.28 260.85 19.43L260.85 19.43Q260.85 18.58 259.60 18.58L259.60 18.58L257.61 18.58ZM257.61 15.31L257.61 16.94L259.24 16.94Q260.44 16.94 260.44 16.12L260.44 16.12Q260.44 15.31 259.24 15.31L259.24 15.31L257.61 15.31ZM269.76 15.48L267.17 15.48L267.17 13.60L274.70 13.60L274.70 15.48L272.13 15.48L272.13 22L269.76 22L269.76 15.48Z" fill="#FFFFFF" x="117.24"/></svg>