<svg xmlns="http://www.w3.org/2000/svg" width="150" height="35" viewBox="0 0 150 35"><rect class="svg__rect" x="0" y="0" width="46.31" height="35" fill="#056C00"/><rect class="svg__rect" x="44.31" y="0" width="105.69" height="35" fill="#2ECC5A"/><path class="svg__text" d="M15.70 22L14.22 22L14.22 13.47L15.70 13.47L19.51 19.54L19.51 13.47L20.98 13.47L20.98 22L19.50 22L15.70 15.95L15.70 22ZM25.46 18.00L25.46 18.00L25.46 17.52Q25.46 16.28 25.90 15.32Q26.34 14.37 27.15 13.86Q27.95 13.35 28.99 13.35Q30.04 13.35 30.84 13.85Q31.65 14.35 32.09 15.29Q32.53 16.23 32.53 17.48L32.53 17.48L32.53 17.96Q32.53 19.21 32.10 20.16Q31.67 21.10 30.86 21.61Q30.06 22.12 29.01 22.12L29.01 22.12Q27.97 22.12 27.16 21.61Q26.35 21.10 25.90 20.17Q25.46 19.23 25.46 18.00ZM26.94 17.46L26.94 17.96Q26.94 19.36 27.49 20.13Q28.03 20.90 29.01 20.90L29.01 20.90Q29.99 20.90 30.52 20.15Q31.05 19.40 31.05 17.96L31.05 17.96L31.05 17.51Q31.05 16.09 30.52 15.34Q29.98 14.58 28.99 14.58L28.99 14.58Q28.03 14.58 27.49 15.33Q26.95 16.09 26.94 17.46L26.94 17.46Z" fill="#FFFFFF"/><path class="svg__text" d="M60.88 22L58.50 22L58.50 13.60L62.34 13.60Q63.48 13.60 64.32 13.98Q65.16 14.35 65.62 15.06Q66.07 15.76 66.07 16.71L66.07 16.71Q66.07 17.62 65.65 18.30Q65.22 18.98 64.43 19.36L64.43 19.36L66.24 22L63.70 22L62.17 19.77L60.88 19.77L60.88 22ZM60.88 15.47L60.88 17.93L62.20 17.93Q62.93 17.93 63.30 17.61Q63.67 17.29 63.67 16.71L63.67 16.71Q63.67 16.12 63.30 15.79Q62.93 15.47 62.20 15.47L62.20 15.47L60.88 15.47ZM72.28 22L69.85 22L73.56 13.60L75.91 13.60L79.62 22L77.15 22L76.49 20.37L72.94 20.37L72.28 22ZM74.72 15.93L73.63 18.61L75.79 18.61L74.72 15.93ZM83.35 17.80L83.35 17.80Q83.35 16.54 83.95 15.54Q84.54 14.55 85.61 13.99Q86.68 13.43 88.02 13.43L88.02 13.43Q89.20 13.43 90.14 13.83Q91.08 14.22 91.70 14.97L91.70 14.97L90.19 16.33Q89.34 15.40 88.16 15.40L88.16 15.40Q88.15 15.40 88.15 15.40L88.15 15.40Q87.07 15.40 86.41 16.06Q85.74 16.71 85.74 17.80L85.74 17.80Q85.74 18.50 86.05 19.04Q86.35 19.59 86.89 19.89Q87.43 20.20 88.12 20.20L88.12 20.20Q88.81 20.20 89.41 19.93L89.41 19.93L89.41 17.62L91.50 17.62L91.50 21.10Q90.78 21.61 89.85 21.89Q88.91 22.17 87.98 22.17L87.98 22.17Q86.66 22.17 85.60 21.61Q84.54 21.05 83.95 20.05Q83.35 19.06 83.35 17.80ZM98.87 22L96.50 22L96.50 13.60L100.34 13.60Q101.48 13.60 102.32 13.98Q103.16 14.35 103.62 15.06Q104.07 15.76 104.07 16.71L104.07 16.71Q104.07 17.62 103.64 18.30Q103.22 18.98 102.43 19.36L102.43 19.36L104.24 22L101.69 22L100.17 19.77L98.87 19.77L98.87 22ZM98.87 15.47L98.87 17.93L100.19 17.93Q100.93 17.93 101.30 17.61Q101.67 17.29 101.67 16.71L101.67 16.71Q101.67 16.12 101.30 15.79Q100.93 15.47 100.19 15.47L100.19 15.47L98.87 15.47ZM115.60 22L108.86 22L108.86 13.60L115.45 13.60L115.45 15.44L111.21 15.44L111.21 16.85L114.95 16.85L114.95 18.63L111.21 18.63L111.21 20.17L115.60 20.17L115.60 22ZM122.20 15.48L119.62 15.48L119.62 13.60L127.14 13.60L127.14 15.48L124.57 15.48L124.57 22L122.20 22L122.20 15.48ZM130.93 21.24L130.93 21.24L131.70 19.49Q132.27 19.86 133.01 20.09Q133.76 20.32 134.48 20.32L134.48 20.32Q135.84 20.32 135.85 19.64L135.85 19.64Q135.85 19.28 135.46 19.11Q135.07 18.93 134.20 18.74L134.20 18.74Q133.25 18.53 132.62 18.30Q131.98 18.06 131.53 17.55Q131.07 17.03 131.07 16.16L131.07 16.16Q131.07 15.39 131.49 14.77Q131.91 14.15 132.74 13.79Q133.58 13.43 134.79 13.43L134.79 13.43Q135.61 13.43 136.42 13.62Q137.22 13.80 137.84 14.17L137.84 14.17L137.11 15.93Q135.91 15.28 134.78 15.28L134.78 15.28Q134.07 15.28 133.74 15.49Q133.42 15.70 133.42 16.04L133.42 16.04Q133.42 16.37 133.81 16.54Q134.19 16.71 135.04 16.89L135.04 16.89Q136.00 17.10 136.63 17.33Q137.26 17.56 137.72 18.07Q138.19 18.58 138.19 19.46L138.19 19.46Q138.19 20.21 137.77 20.83Q137.35 21.44 136.51 21.80Q135.67 22.17 134.46 22.17L134.46 22.17Q133.45 22.17 132.48 21.92Q131.52 21.67 130.93 21.24Z" fill="#FFFFFF" x="57.31"/></svg>